<?xml version="1.0" encoding="UTF-8" standalone="no"?>
<!DOCTYPE svg PUBLIC "-//W3C//DTD SVG 1.1//EN" "http://www.w3.org/Graphics/SVG/1.1/DTD/svg11.dtd">
<svg width="100%" height="100%" viewBox="0 0 1130 1090" version="1.1" xmlns="http://www.w3.org/2000/svg" xmlns:xlink="http://www.w3.org/1999/xlink" xml:space="preserve" xmlns:serif="http://www.serif.com/" style="fill-rule:evenodd;clip-rule:evenodd;stroke-linejoin:round;stroke-miterlimit:2;">
    <g transform="matrix(0.973306,0,0,0.973306,9.12364,20.2934)">
        <path d="M366.018,94.37L210.95,94.37C93.365,94.37 -1.95,189.685 -1.95,307.27L-1.95,885.62C-1.95,920.481 6.44,953.376 21.295,982.419C23.695,987.111 26.744,991.272 30.291,994.835C31.814,999.664 34.095,1004.28 37.088,1008.51C75.635,1062.97 139.148,1098.52 210.95,1098.52C210.95,1098.52 483.82,1098.52 483.82,1098.52C492.254,1098.52 500.306,1096.41 507.391,1092.61L507.624,1092.74C514.819,1096.53 522.833,1098.52 530.97,1098.52L531.94,1098.52C554.843,1098.52 574.818,1082.96 580.421,1060.75C584.285,1045.43 580.631,1029.66 571.376,1017.78C637.397,1050.45 724.895,1065.9 835.246,1030.72C835.667,1030.58 836.087,1030.44 836.505,1030.3C836.505,1030.3 1049.9,957.402 1056.07,713.337C1057,699.828 1060.75,598.825 977.157,493.322C1023.7,542.536 1038.66,579.702 1038.66,579.702C1047.15,602.337 1070.61,615.66 1094.4,611.348C1118.18,607.036 1135.48,586.324 1135.48,562.15L1135.48,554.34C1135.48,547.408 1134.04,540.551 1131.25,534.205L1128.21,527.525C1132.86,519.897 1135.48,510.981 1135.48,501.58L1135.48,307.26C1135.48,237.967 1102.37,176.414 1051.11,137.54C1047.04,134.449 1042.56,132.035 1037.84,130.355C1034.42,126.745 1030.4,123.592 1025.83,121.052C995.237,104.055 960.043,94.35 922.57,94.35L714.181,94.35C685.408,26.634 618.308,-20.85 540.11,-20.85C461.892,-20.85 394.772,26.653 366.018,94.37Z" style="fill:rgb(26,33,58);"/>
    </g>
    <g transform="matrix(0.973306,0,0,0.973306,9.12364,20.2934)">
        <path d="M331.73,867.72C327.6,858.19 323.85,848.54 320.49,838.79C260.74,887.79 195.15,924.59 149.71,947.19C119.07,962.43 93.75,973.24 77.9,979.62C107.4,1021.3 156,1048.52 210.95,1048.52L483.82,1048.52C461.81,1033.94 441.2,1017.3 422.13,998.68C383.4,960.85 352.98,916.79 331.73,867.72ZM1001.26,433.08C964.76,397.43 922.25,369.44 874.91,349.89C825.89,329.64 773.81,319.37 720.11,319.37C666.41,319.37 614.33,329.64 565.31,349.89C517.97,369.44 475.46,397.43 438.96,433.08C402.48,468.71 373.84,510.19 353.84,556.37C333.14,604.16 322.65,654.92 322.65,707.26C322.65,759.6 333.14,810.36 353.84,858.15C373.84,904.33 402.48,945.81 438.96,981.44C466.4,1008.24 497.24,1030.71 530.97,1048.52L531.94,1048.52C514.96,1039.37 374.62,955.23 348.04,794.33C347.62,791.82 350.92,790.51 352.36,792.61C364.73,810.66 396.94,846.42 456.4,842.95C457.34,842.9 458.22,843.38 458.66,844.22C468.22,862.59 582.75,1058.73 820.06,983.08C820.06,983.08 1001.56,919.87 1006.12,710.77C1006.12,710.77 1016.12,589.99 896.15,479.5C888.95,472.86 928.01,442.74 916.52,381.75C916.16,379.86 918.25,378.03 919.82,379.13C1051.08,470.39 1085.48,562.15 1085.48,562.15L1085.48,554.34C1065.52,508.97 1037.21,468.18 1001.26,433.07L1001.26,433.08ZM984.39,711.64C984.39,861.55 864.46,983.08 716.53,983.08C568.6,983.08 448.67,861.55 448.67,711.64C448.67,561.73 568.6,440.2 716.53,440.2C864.46,440.2 984.39,561.73 984.39,711.64ZM298.56,707.26C298.56,651.61 309.72,597.62 331.73,546.8C352.98,497.73 383.39,453.67 422.13,415.84C448.21,390.37 477.2,368.6 508.68,350.75C507.65,348.85 506.68,346.43 505.78,343.34L501.28,329.6C428.01,311.56 373.66,245.43 373.66,166.6C373.66,159.06 374.16,151.64 375.13,144.37L210.95,144.37C120.98,144.37 48.05,217.3 48.05,307.27L48.05,885.62C48.05,912.28 54.45,937.44 65.81,959.65C104.45,944.24 218.63,894.83 313.11,815.02C303.44,780.11 298.56,744.05 298.56,707.26ZM844.54,899.41C738.47,978.02 591.94,948.41 519.9,839.03C484.14,784.48 471.1,714.89 487.35,651.48C504.74,584.46 551.42,525.35 613.23,493.99C614.84,493.28 620.6,490.4 622.26,489.66C629.2,486.68 636.84,483.51 644.04,481.24C658.75,476.52 674.23,473.17 689.63,471.94L696.25,471.4C700.5,471.05 704.22,474.21 704.57,478.46C704.9,482.54 702,486.13 698.01,486.72L697.55,486.79L691.47,487.67C677.43,489.71 663.38,493.52 650.11,498.53C566.86,530.32 506.09,615.69 505.84,705.1C506.16,778.86 542.76,848.18 605.1,888.13C628.75,903.35 655.61,913.57 683.36,918.06C684.84,918.21 690.77,919.16 692.33,919.34C695.11,919.62 700.09,920.01 702.87,920.29C705.97,920.44 710.41,920.55 713.45,920.69C723.46,920.66 733.73,920.28 743.65,918.87C775.84,914.68 806.93,902.51 833.85,884.35C843.88,878.07 853.86,891.79 844.53,899.4L844.54,899.41ZM926.03,853.08C928.1,850.21 930.31,847.45 932.81,844.98C935.57,837.76 937,832.24 937,832.24C930.74,834.47 924.21,834.02 924.21,834.02C879.27,834.02 842.83,797.59 842.83,752.64C842.83,707.69 879.26,671.26 924.21,671.26C933.14,671.26 941.74,672.7 949.78,675.36C949.78,675.36 953.13,647.06 951.09,646.57C949.37,646.16 947.64,645.79 945.89,645.45L936.83,624.41C936.42,623.45 935.47,622.83 934.42,622.83L912.95,622.83C911.91,622.83 910.97,623.45 910.55,624.4L901.23,645.67C892.99,647.42 885.01,650.11 877.44,653.7C877.33,653.61 877.23,653.52 877.1,653.45L856.64,641.97C855.73,641.46 854.6,641.54 853.77,642.17L836.72,655.21C835.89,655.84 835.52,656.9 835.77,657.91L841.36,680.76C841.39,680.87 841.44,680.97 841.48,681.08C837.05,686.19 833.14,691.65 829.76,697.4L807.8,698.99C806.76,699.07 805.86,699.75 805.51,700.74L798.46,721.02C798.12,722 798.39,723.09 799.15,723.8L815.65,739.1C815.1,743.55 814.83,748.07 814.83,752.63C814.83,757.54 815.16,762.4 815.79,767.19L799.02,782.87C798.26,783.59 797.99,784.69 798.34,785.67L805.6,805.87C805.95,806.85 806.85,807.53 807.89,807.6L830.5,809.14C834.71,816.09 839.72,822.6 845.49,828.58C845.34,828.83 845.22,829.1 845.15,829.41L840.66,852.44C840.46,853.47 840.89,854.52 841.75,855.11L859.47,867.22C860.33,867.81 861.45,867.83 862.34,867.28L882.29,854.82C882.62,854.62 882.86,854.35 883.06,854.05C888.35,856.19 893.8,857.92 899.39,859.21L909.49,870.35C915.13,864.72 920.71,859.02 925.99,853.07L926.03,853.08ZM805.04,745.49L789.02,729.6C789.25,726.66 789.37,723.7 789.37,720.73C789.37,715.59 789.01,710.51 788.33,705.51L804.97,689.45C805.72,688.72 805.97,687.62 805.6,686.64L798.02,666.56C797.65,665.59 796.74,664.92 795.7,664.87L773.55,663.72C769.21,656.55 764.02,649.84 758.03,643.7L762.13,621.39C762.32,620.36 761.88,619.32 761.01,618.74L743.16,606.82C742.29,606.24 741.17,606.23 740.29,606.79L721.5,618.81C713.96,615.67 706.07,613.37 697.94,611.97L689.16,591.59C688.75,590.63 687.8,590.01 686.75,590.01L665.28,590.01C664.24,590.01 663.3,590.63 662.88,591.58L653.44,613.13C653.41,613.21 653.4,613.28 653.37,613.36C645.84,615.14 638.54,617.71 631.58,621.02L611.52,609.23C610.62,608.7 609.49,608.76 608.64,609.38L591.33,622.07C590.49,622.69 590.1,623.74 590.32,624.75L595.44,647.71C595.49,647.94 595.57,648.16 595.68,648.36C590.57,654.22 586.15,660.54 582.43,667.21L582.38,667.21L559.04,669.62C558,669.73 557.12,670.44 556.81,671.44L550.39,691.92C550.08,692.91 550.39,694 551.17,694.68L568.9,710.14C568.97,710.2 569.05,710.23 569.12,710.29C568.8,713.74 568.63,717.23 568.63,720.74C568.63,725.85 568.98,730.91 569.66,735.9L553.12,750.36C552.33,751.05 552.03,752.16 552.35,753.19L558.81,774.38C559.12,775.41 559.99,776.16 561.02,776.3L584.26,779.4C584.67,779.45 585.04,779.4 585.39,779.28C589.11,785.2 593.42,790.8 598.28,796.01C598.19,796.21 598.12,796.42 598.08,796.64L593.99,819.65C593.81,820.68 594.27,821.74 595.16,822.34L613.46,834.82C614.35,835.42 615.49,835.47 616.38,834.93L636.44,822.8C636.49,822.77 636.52,822.73 636.57,822.69C643.91,825.75 651.59,827.99 659.49,829.4L668.63,849.73C669.06,850.68 670.03,851.3 671.11,851.3L693.26,851.3C694.33,851.3 695.31,850.69 695.74,849.75L705.49,828.43C705.57,828.25 705.62,828.07 705.66,827.89C713.24,826.02 720.57,823.35 727.56,819.92C727.72,820.08 727.91,820.22 728.13,820.34L748.7,831.44C749.62,831.94 750.77,831.83 751.63,831.17L769.21,817.7C770.06,817.05 770.46,815.97 770.23,814.96L765,792.11C764.88,791.6 764.62,791.18 764.27,790.86C769.44,784.59 773.86,777.84 777.49,770.71L795.58,770.01C796.63,769.97 797.55,769.31 797.92,768.33L805.65,748.3C806.03,747.33 805.79,746.23 805.05,745.5L805.04,745.49ZM679,802.1C634.06,802.1 597.62,765.67 597.62,720.72C597.62,675.77 634.05,639.34 679,639.34C723.95,639.34 760.38,675.77 760.38,720.72C760.38,765.67 723.95,802.1 679,802.1ZM926.43,718.92C907.8,718.92 892.7,734.02 892.7,752.65C892.7,771.28 907.8,786.38 926.43,786.38C945.06,786.38 960.16,771.28 960.16,752.65C960.16,734.02 945.06,718.92 926.43,718.92ZM679.2,685.05C698.445,685.05 714.07,700.675 714.07,719.92C714.07,739.165 698.445,754.79 679.2,754.79C659.955,754.79 644.33,739.165 644.33,719.92C644.33,700.675 659.955,685.05 679.2,685.05ZM714.07,542.36C714.1,543.21 714.63,543.97 715.43,544.28L732,550.83C733.12,555.28 734.6,559.58 736.43,563.7C736.38,563.77 736.32,563.83 736.28,563.9L727.03,580.77C726.62,581.52 726.69,582.45 727.22,583.13L738.05,597.01C738.57,597.68 739.45,597.98 740.28,597.77L758.68,593.08C762.11,595.93 765.79,598.5 769.66,600.75L771.77,619.78C771.86,620.63 772.46,621.35 773.28,621.6L790.12,626.74C790.94,626.99 791.82,626.74 792.38,626.08L804.87,611.53C806.21,611.62 807.56,611.68 808.92,611.7C811.96,611.74 814.95,611.6 817.89,611.32C817.92,611.35 817.93,611.39 817.96,611.42L830.93,625.63C831.51,626.26 832.41,626.49 833.22,626.21L849.85,620.45C850.66,620.17 851.22,619.44 851.29,618.59L852.83,599.39C856.11,597.32 859.23,595.03 862.17,592.52C862.45,592.79 862.8,593 863.22,593.09L882.05,597.04C882.89,597.22 883.75,596.88 884.25,596.17L894.39,581.78C894.88,581.08 894.91,580.16 894.47,579.43L884.49,562.92C884.41,562.78 884.31,562.67 884.21,562.56C887.71,554.39 889.92,545.55 890.58,536.31C890.64,535.43 874.17,535.95 871.05,536.06C870.76,536.07 870.53,536.3 870.5,536.59C867.74,567.5 841.61,592.07 809.39,591.7C778.29,591.35 752.25,567.01 749.78,536.01C748.33,517.87 754.96,501.11 766.54,489.09C767.35,488.25 767.6,487.03 767.24,485.93L762.05,470.1C761.59,468.7 759.86,468.2 758.72,469.15C758.63,469.23 758.54,469.31 758.45,469.38C758.4,469.36 758.35,469.34 758.3,469.32L739.58,464.88C738.74,464.68 737.87,465 737.36,465.69L726.85,479.81C726.34,480.49 726.28,481.42 726.71,482.16L736.26,498.92C736.26,498.92 736.28,498.95 736.29,498.96C734.07,504.03 732.37,509.36 731.23,514.88L714.66,522.75C713.88,523.12 713.4,523.91 713.43,524.77L714.08,542.36L714.07,542.36ZM808.2,557.51C821.73,557.51 832.7,546.54 832.7,533.02C832.7,519.5 821.73,508.53 808.2,508.53C794.67,508.53 783.71,519.5 783.71,533.02C783.71,546.54 794.68,557.51 808.2,557.51ZM1020.9,177.38C973.42,265.62 922.4,315.92 900.75,334.92C944.3,355.1 983.71,382.26 1018.1,415.84C1044.52,441.65 1067.07,470.36 1085.48,501.58L1085.48,307.26C1085.48,254.23 1060.13,207.13 1020.9,177.38ZM669.55,275.18L673.85,288.32C675.13,291.99 675.99,294.97 676.53,297.43C690.93,295.99 705.46,295.26 720.11,295.26C774.4,295.26 827.14,305.18 877.01,324.75C883.95,319.29 945.83,268.81 1001.55,164.76C978.15,151.76 951.23,144.35 922.57,144.35L707.93,144.35C708.89,151.63 709.4,159.04 709.4,166.58C709.4,207.99 694.4,245.89 669.54,275.16L669.55,275.18ZM401.08,164.474C403.064,89.407 464.552,29.15 540.11,29.15C613.187,29.15 673.103,85.514 678.754,157.149L678.72,156.69C678.745,156.98 678.768,157.27 678.789,157.56L678.847,158.385C679.074,161.636 679.19,164.919 679.19,168.23C679.19,173.447 678.903,178.597 678.343,183.662L678.41,183.11C678.34,183.77 678.265,184.43 678.185,185.089C678.105,185.748 678.02,186.405 677.93,187.06L677.977,186.676C675.346,206.512 668.534,225.023 658.46,241.3L651.19,219.11C648.24,210.1 638.54,205.18 629.53,208.13L611.97,213.88L604.63,191.46C604.424,190.833 604.181,190.229 603.903,189.649C602.739,187.241 600.978,185.263 598.86,183.83C600.175,184.715 601.355,185.813 602.339,187.095C602.517,187.328 602.689,187.567 602.855,187.812C600.043,183.616 595.252,181.135 590.215,181.253L590.142,181.255L589.975,181.26L589.962,181.261C589.604,181.275 589.245,181.303 588.885,181.344L588.835,181.35L588.689,181.368L588.602,181.38L588.472,181.398L588.377,181.412C587.568,181.533 586.756,181.725 585.95,181.99L512.67,205.98L512.66,205.98L512.479,206.041L512.3,206.103L512.288,206.107L512.122,206.168L512.107,206.173L511.946,206.234L511.927,206.241L511.772,206.302L511.748,206.312L511.599,206.372L511.572,206.384L511.429,206.444L511.396,206.458L511.261,206.517L511.222,206.534L511.096,206.591L511.049,206.613L510.933,206.667L510.878,206.693L510.775,206.743L510.709,206.775L510.62,206.819L510.54,206.859L510.472,206.894L510.373,206.945L510.332,206.967L510.207,207.034C505.398,209.636 502.46,214.689 502.461,220.059L502.85,223.42L502.461,220.062L502.461,220.059L502.461,220.059C502.459,214.909 505.156,210.059 509.611,207.374C503.827,210.858 500.997,217.978 503.19,224.67L510.53,247.09L494.09,252.47L494.1,252.47L493.89,252.54C489.487,254.044 486.081,257.169 484.125,261.028C482.169,264.886 481.661,269.479 483.052,273.919L483.12,274.13L491.07,298.41L490.591,298.228C490.752,298.29 490.911,298.35 491.07,298.41C490.9,298.346 490.73,298.281 490.56,298.217L490.454,298.176L490.298,298.116L490.205,298.08L490.078,298.031C471.982,291.051 455.713,280.397 442.186,266.985L442.22,267.02C441.76,266.565 441.303,266.105 440.849,265.643C440.395,265.18 439.945,264.715 439.5,264.25L439.577,264.329C415.698,239.358 401.03,205.508 401.03,168.23C401.03,167.109 401.043,165.99 401.07,164.875L401.071,164.754C401.072,164.706 401.074,164.657 401.075,164.609L401.08,164.474ZM490.194,298.076L490.216,298.085L490.194,298.076ZM658.584,241.108L658.555,241.156C658.565,241.14 658.575,241.124 658.584,241.108ZM658.738,240.859L658.745,240.847C658.701,240.919 658.658,240.99 658.614,241.061C658.655,240.994 658.696,240.926 658.738,240.859ZM658.891,240.609L658.898,240.598L658.767,240.812L658.891,240.609ZM659.036,240.371L659.043,240.359C658.995,240.439 658.946,240.518 658.898,240.598L659.036,240.371ZM659.64,239.368L659.597,239.44C659.611,239.416 659.625,239.392 659.64,239.368ZM659.939,238.864C659.901,238.928 659.863,238.992 659.825,239.056C659.787,239.12 659.749,239.184 659.711,239.248L659.939,238.864ZM660.13,238.54L660.137,238.528C660.083,238.62 660.028,238.712 659.974,238.804C660.026,238.716 660.078,238.628 660.13,238.54ZM660.32,238.215L660.327,238.203L660.172,238.468L660.32,238.215ZM660.544,237.829L660.509,237.889C660.521,237.869 660.533,237.849 660.544,237.829ZM660.983,237.066C660.961,237.105 660.939,237.143 660.917,237.182C660.895,237.22 660.873,237.258 660.851,237.297L660.983,237.066ZM661.21,236.666L661.217,236.654C661.185,236.71 661.153,236.767 661.121,236.824C661.151,236.771 661.18,236.719 661.21,236.666ZM661.368,236.386L661.375,236.374C661.329,236.455 661.284,236.536 661.238,236.617L661.368,236.386ZM661.409,236.313L661.382,236.362C661.391,236.346 661.4,236.33 661.409,236.313ZM661.519,236.118C661.506,236.141 661.494,236.163 661.481,236.185C661.469,236.208 661.456,236.23 661.444,236.252L661.519,236.118ZM661.777,235.655L661.764,235.679L661.777,235.655ZM661.919,235.398L661.899,235.435L661.919,235.398ZM661.987,235.276L661.967,235.313C661.973,235.301 661.98,235.288 661.987,235.276ZM662.242,234.811C662.209,234.872 662.175,234.933 662.142,234.995C662.108,235.056 662.075,235.117 662.041,235.178L662.242,234.811ZM662.543,234.258C662.496,234.344 662.45,234.43 662.403,234.516C662.356,234.602 662.309,234.688 662.262,234.774L662.543,234.258ZM662.702,233.963L662.708,233.951C662.678,234.008 662.647,234.066 662.616,234.123C662.644,234.07 662.673,234.016 662.702,233.963ZM662.933,233.532L662.939,233.519C662.895,233.601 662.851,233.684 662.808,233.766C662.849,233.688 662.891,233.61 662.933,233.532ZM663.227,232.976L663.195,233.037L663.227,232.976ZM663.396,232.654L663.377,232.691L663.396,232.654ZM663.52,232.418C663.509,232.439 663.498,232.459 663.487,232.48C663.476,232.501 663.466,232.521 663.455,232.542L663.52,232.418ZM663.584,232.294L663.571,232.319L663.584,232.294ZM663.976,231.536L663.963,231.56L663.976,231.536ZM664.147,231.199C664.137,231.22 664.126,231.241 664.116,231.261C664.105,231.282 664.094,231.303 664.084,231.324C664.105,231.282 664.126,231.241 664.147,231.199ZM664.23,231.037L664.179,231.137C664.196,231.103 664.213,231.07 664.23,231.037ZM664.507,230.487C664.474,230.553 664.44,230.62 664.407,230.687C664.373,230.754 664.339,230.82 664.306,230.887C664.373,230.754 664.44,230.62 664.507,230.487ZM664.67,230.161L664.639,230.224L664.67,230.161ZM664.726,230.048L664.683,230.136C664.697,230.107 664.712,230.078 664.726,230.048ZM664.82,229.86L664.77,229.96C664.786,229.927 664.803,229.894 664.82,229.86ZM665.036,229.42L665.024,229.445C665.028,229.437 665.032,229.429 665.036,229.42ZM665.104,229.282L665.067,229.357C665.08,229.332 665.092,229.307 665.104,229.282ZM665.264,228.954L665.239,229.005L665.264,228.954ZM665.319,228.841L665.301,228.879C665.307,228.866 665.313,228.854 665.319,228.841ZM665.35,228.778L665.337,228.803L665.35,228.778ZM665.459,228.551L665.441,228.589C665.447,228.576 665.453,228.563 665.459,228.551ZM665.563,228.336C665.549,228.366 665.534,228.395 665.52,228.425C665.506,228.454 665.492,228.483 665.478,228.513C665.506,228.454 665.535,228.395 665.563,228.336ZM665.648,228.159L665.611,228.235C665.623,228.21 665.636,228.184 665.648,228.159ZM665.738,227.969L665.702,228.045C665.714,228.02 665.726,227.995 665.738,227.969ZM665.817,227.805C665.807,227.826 665.797,227.847 665.786,227.868C665.776,227.889 665.766,227.91 665.756,227.931L665.817,227.805ZM665.919,227.589C665.908,227.613 665.897,227.636 665.886,227.659C665.875,227.682 665.864,227.705 665.853,227.729C665.875,227.682 665.897,227.636 665.919,227.589ZM665.985,227.45L665.937,227.551L665.985,227.45ZM666.032,227.348L666.002,227.412L666.032,227.348ZM666.187,227.018C666.164,227.067 666.142,227.115 666.119,227.164C666.096,227.213 666.073,227.261 666.05,227.31L666.187,227.018ZM666.335,226.7L666.341,226.687L666.194,227.003L666.335,226.7ZM666.4,226.56L666.388,226.585L666.4,226.56ZM666.839,225.603L666.827,225.629L666.839,225.603ZM666.931,225.398L666.92,225.424L666.931,225.398ZM667.076,225.078L667.081,225.065L666.955,225.347L667.076,225.078ZM667.503,224.115L667.481,224.167L667.503,224.115ZM667.689,223.69L667.65,223.78C667.663,223.75 667.676,223.72 667.689,223.69ZM667.89,223.226C667.866,223.282 667.842,223.338 667.818,223.394C667.794,223.449 667.769,223.505 667.745,223.561C667.794,223.449 667.842,223.338 667.89,223.226ZM502.461,220.059L502.461,220.057L502.461,220.06L502.461,220.061L502.461,220.08L502.462,220.116L502.464,220.334L502.464,220.347L502.465,220.381L502.465,220.395L502.473,220.642L502.474,220.656L502.475,220.691L502.486,220.899L502.487,220.924L502.489,220.953L502.49,220.969L502.491,220.994L502.495,221.053L502.5,221.122L502.502,221.141L502.503,221.163L502.508,221.225L502.513,221.292L502.515,221.313L502.517,221.335L502.523,221.398L502.529,221.462L502.531,221.485L502.533,221.508L502.54,221.57L502.546,221.633L502.549,221.657L502.551,221.682L502.558,221.742L502.565,221.803L502.569,221.829L502.572,221.856L502.579,221.913L502.587,221.974L502.591,222.001L502.594,222.03L502.602,222.084L502.61,222.145L502.615,222.173L502.619,222.207L502.627,222.256L502.634,222.303L502.636,222.317L502.64,222.342L502.644,222.369L502.648,222.394L502.657,222.446L502.664,222.493L502.67,222.524L502.673,222.544L502.677,222.57L502.688,222.63L502.699,222.689L502.702,222.705L502.704,222.72L502.709,222.745L502.722,222.816L502.733,222.875L502.737,222.895L502.743,222.922L502.761,223.011L502.771,223.06L502.772,223.065L502.848,223.41L502.85,223.42L502.848,223.41C502.821,223.295 502.795,223.179 502.772,223.065L502.77,223.058L502.756,222.99L502.743,222.922L502.735,222.883L502.72,222.807L502.709,222.745L502.701,222.704L502.687,222.625L502.677,222.57L502.67,222.524L502.656,222.444L502.648,222.394L502.64,222.344L502.627,222.257L502.614,222.174L502.602,222.086L502.59,222.002L502.579,221.915L502.569,221.83L502.558,221.743L502.549,221.658L502.54,221.571L502.531,221.486L502.523,221.399L502.515,221.314L502.508,221.226L502.501,221.141L502.495,221.054L502.49,220.969L502.487,220.92L502.486,220.899L502.481,220.815L502.475,220.691L502.473,220.65L502.473,220.64L502.467,220.469L502.465,220.395L502.464,220.361L502.464,220.334L502.463,220.297L502.461,220.124L502.461,220.078L502.461,220.06L502.461,220.059L502.461,220.08L502.461,220.124C502.462,220.196 502.463,220.268 502.464,220.34L502.464,220.359L502.465,220.387C502.467,220.475 502.47,220.562 502.473,220.65L502.481,220.818L502.487,220.92L502.488,220.947L502.49,220.969L502.491,220.991L502.495,221.054L502.5,221.119L502.501,221.141L502.503,221.164L502.508,221.226L502.513,221.29L502.515,221.314L502.517,221.337L502.523,221.399L502.528,221.461L502.531,221.486L502.533,221.511L502.54,221.571L502.546,221.632L502.549,221.658L502.551,221.684L502.558,221.743L502.565,221.803L502.569,221.83L502.572,221.858L502.579,221.915L502.587,221.973L502.59,222.002L502.594,222.031L502.602,222.086L502.61,222.143L502.614,222.174L502.619,222.205L502.627,222.257L502.635,222.313L502.64,222.344L502.645,222.378L502.656,222.444L502.665,222.498L502.67,222.524L502.674,222.552L502.687,222.625L502.697,222.683L502.701,222.704L502.705,222.726L502.72,222.807L502.732,222.867L502.735,222.883L502.738,222.899L502.756,222.99L502.769,223.051L502.773,223.073C502.786,223.131 502.798,223.189 502.811,223.247L502.848,223.41L502.849,223.415C502.849,223.416 502.85,223.418 502.85,223.42L502.771,223.063L502.761,223.011L502.736,222.886L502.722,222.816L502.702,222.705L502.688,222.63L502.67,222.524L502.657,222.446L502.64,222.342L502.627,222.256L502.615,222.173L502.602,222.084L502.591,222.001L502.579,221.913L502.569,221.829L502.558,221.742L502.549,221.657L502.54,221.57L502.531,221.485L502.523,221.398L502.515,221.313L502.508,221.225L502.502,221.141L502.495,221.053L502.49,220.969L502.487,220.924L502.474,220.671L502.473,220.651L502.465,220.389L502.464,220.341L502.462,220.116L502.461,220.079L502.461,220.062L502.461,220.061L502.461,220.059ZM668.129,222.67C668.114,222.704 668.099,222.739 668.084,222.773C668.07,222.808 668.055,222.842 668.04,222.877L668.129,222.67ZM668.337,222.178L668.326,222.204L668.337,222.178ZM668.441,221.931L668.392,222.048L668.441,221.931ZM668.479,221.84L668.452,221.905C668.461,221.884 668.47,221.862 668.479,221.84ZM668.754,221.177L668.727,221.242L668.754,221.177ZM668.867,220.904L668.872,220.891C668.84,220.969 668.808,221.047 668.776,221.125C668.806,221.051 668.836,220.978 668.867,220.904ZM669.016,220.539L669,220.578L669.016,220.539ZM669.132,220.251C669.122,220.275 669.113,220.299 669.103,220.323C669.093,220.347 669.084,220.371 669.074,220.395C669.093,220.347 669.113,220.299 669.132,220.251ZM669.332,219.754L669.321,219.781C669.325,219.772 669.328,219.763 669.332,219.754ZM669.612,219.047L669.602,219.073C669.605,219.064 669.609,219.055 669.612,219.047ZM669.663,218.915L669.648,218.955C669.653,218.942 669.658,218.928 669.663,218.915ZM669.756,218.679L669.746,218.705L669.756,218.679ZM669.812,218.534L669.797,218.574C669.802,218.561 669.807,218.547 669.812,218.534ZM669.899,218.311L669.904,218.297C669.877,218.368 669.85,218.438 669.822,218.508C669.848,218.442 669.873,218.376 669.899,218.311ZM670.015,218.008L670.02,217.995L669.909,218.284L670.015,218.008ZM670.207,217.507L670.197,217.533L670.207,217.507ZM670.242,217.414L670.227,217.454L670.242,217.414ZM670.291,217.282L670.271,217.335C670.278,217.317 670.285,217.3 670.291,217.282ZM670.381,217.044L670.386,217.031C670.361,217.097 670.336,217.163 670.311,217.229C670.335,217.168 670.358,217.106 670.381,217.044ZM670.485,216.766L670.46,216.833C670.468,216.811 670.477,216.789 670.485,216.766ZM670.514,216.687L670.49,216.753L670.514,216.687ZM670.652,216.316L670.657,216.303C670.622,216.396 670.588,216.488 670.554,216.581C670.586,216.493 670.619,216.404 670.652,216.316ZM670.812,215.878C670.803,215.903 670.795,215.927 670.786,215.951C670.777,215.976 670.768,216 670.759,216.024L670.812,215.878ZM670.943,215.52C670.935,215.542 670.927,215.564 670.919,215.586C670.911,215.608 670.903,215.63 670.895,215.652L670.943,215.52ZM671,215.36L670.957,215.48L671,215.36ZM671.417,214.187C671.397,214.245 671.377,214.303 671.356,214.361C671.336,214.418 671.315,214.476 671.295,214.534C671.336,214.418 671.377,214.303 671.417,214.187ZM671.515,213.906L671.496,213.96C671.503,213.942 671.509,213.924 671.515,213.906ZM671.631,213.572L671.599,213.666L671.631,213.572ZM671.76,213.197L671.732,213.277C671.741,213.25 671.75,213.224 671.76,213.197ZM671.933,212.687C671.92,212.725 671.907,212.763 671.894,212.801C671.881,212.839 671.868,212.877 671.856,212.915C671.881,212.839 671.907,212.763 671.933,212.687ZM672.068,212.284L672.055,212.324C672.059,212.311 672.064,212.297 672.068,212.284ZM672.113,212.15L672.081,212.244L672.113,212.15ZM672.233,211.786L672.224,211.813C672.227,211.804 672.23,211.795 672.233,211.786ZM672.379,211.341C672.361,211.395 672.344,211.449 672.326,211.503C672.309,211.557 672.291,211.611 672.273,211.665C672.309,211.557 672.344,211.449 672.379,211.341ZM672.506,210.95C672.499,210.973 672.491,210.995 672.484,211.018C672.477,211.04 672.47,211.063 672.462,211.085C672.477,211.04 672.491,210.995 672.506,210.95ZM672.658,210.477L672.632,210.558L672.658,210.477ZM672.679,210.409L672.662,210.464L672.679,210.409ZM672.82,209.963L672.825,209.949L672.722,210.274L672.82,209.963ZM673.015,209.339L673.019,209.325L672.91,209.678C672.945,209.565 672.98,209.452 673.015,209.339ZM673.182,208.795C673.16,208.866 673.139,208.936 673.117,209.006C673.096,209.076 673.074,209.146 673.053,209.217C673.096,209.076 673.139,208.936 673.182,208.795ZM673.273,208.496L673.24,208.605L673.273,208.496ZM673.33,208.305L673.334,208.292L673.275,208.488L673.33,208.305ZM673.351,208.237L673.342,208.265L673.351,208.237ZM629.907,208.015C631.477,207.541 633.062,207.299 634.63,207.28L634.625,207.28C634.501,207.282 634.377,207.286 634.253,207.291C634.013,207.3 633.773,207.314 633.533,207.333C633.03,207.374 632.528,207.435 632.03,207.519C631.543,207.601 631.06,207.704 630.582,207.827C630.356,207.885 630.131,207.948 629.907,208.015L629.9,208.017L629.54,208.13C629.66,208.091 629.78,208.053 629.9,208.017L629.907,208.015ZM673.481,207.801L673.46,207.869L673.481,207.801ZM673.529,207.637L673.505,207.719C673.513,207.692 673.521,207.665 673.529,207.637ZM673.569,207.501L673.557,207.542C673.561,207.528 673.565,207.514 673.569,207.501ZM673.637,207.269L673.641,207.255C673.621,207.323 673.601,207.392 673.581,207.46C673.6,207.396 673.619,207.332 673.637,207.269ZM509.762,207.285L509.755,207.289L509.762,207.285ZM509.92,207.193L509.914,207.197L509.92,207.193ZM510.08,207.103L510.075,207.106L510.08,207.103ZM510.243,207.015L510.237,207.018L510.243,207.015ZM673.757,206.858L673.733,206.94C673.741,206.913 673.749,206.886 673.757,206.858ZM510.406,206.928L510.401,206.931L510.406,206.928ZM510.572,206.843L510.566,206.846L510.572,206.843ZM673.82,206.639C673.811,206.669 673.803,206.699 673.794,206.728C673.786,206.758 673.777,206.788 673.768,206.817C673.786,206.758 673.803,206.699 673.82,206.639ZM510.738,206.76L510.733,206.763L510.738,206.76ZM510.906,206.679L510.9,206.682L510.906,206.679ZM511.076,206.6L511.07,206.603L511.076,206.6ZM511.246,206.523L511.24,206.526L511.246,206.523ZM511.419,206.448L511.412,206.451L511.419,206.448ZM511.592,206.375L511.585,206.378L511.592,206.375ZM511.767,206.304L511.76,206.307L511.767,206.304ZM511.943,206.235L511.936,206.238L511.943,206.235ZM512.12,206.168L512.113,206.171L512.12,206.168ZM674.034,205.885C674.022,205.927 674.01,205.968 673.999,206.009C673.987,206.05 673.976,206.091 673.964,206.132L674.034,205.885ZM512.299,206.103L512.292,206.106L512.299,206.103ZM512.479,206.041L512.474,206.042L512.479,206.041ZM674.251,205.102L674.255,205.089C674.237,205.153 674.22,205.217 674.202,205.281C674.218,205.222 674.235,205.162 674.251,205.102ZM674.33,204.813L674.323,204.841L674.33,204.813ZM674.72,203.351L674.723,203.337C674.681,203.498 674.639,203.66 674.596,203.821C674.638,203.664 674.679,203.508 674.72,203.351ZM674.951,202.451L674.944,202.479C674.946,202.469 674.948,202.46 674.951,202.451ZM675.207,201.423L675.21,201.41L675.131,201.729L675.207,201.423ZM675.268,201.173L675.271,201.159C675.253,201.233 675.235,201.308 675.217,201.382C675.234,201.312 675.251,201.243 675.268,201.173ZM675.385,200.686L675.389,200.672C675.352,200.825 675.315,200.978 675.278,201.131C675.314,200.983 675.35,200.834 675.385,200.686ZM675.399,200.63L675.392,200.658L675.399,200.63ZM675.462,200.365L675.432,200.491L675.462,200.365ZM675.547,200.002L675.55,199.988C675.523,200.105 675.496,200.221 675.468,200.337C675.495,200.226 675.521,200.114 675.547,200.002ZM675.718,199.262L675.721,199.248C675.679,199.434 675.636,199.621 675.593,199.807C675.635,199.625 675.677,199.444 675.718,199.262ZM675.785,198.968L675.788,198.954L675.737,199.178L675.785,198.968ZM675.851,198.674C675.841,198.718 675.831,198.763 675.821,198.807C675.811,198.851 675.801,198.896 675.791,198.94L675.851,198.674ZM675.888,198.506L675.882,198.534L675.888,198.506ZM675.91,198.408L675.898,198.464C675.902,198.445 675.906,198.426 675.91,198.408ZM675.975,198.113C675.97,198.136 675.965,198.16 675.96,198.183C675.954,198.206 675.949,198.23 675.944,198.253L675.975,198.113ZM675.99,198.043L675.978,198.099L675.99,198.043ZM676.106,197.509L676.109,197.495L676.03,197.86L676.106,197.509ZM676.166,197.228C676.158,197.265 676.15,197.303 676.142,197.34C676.134,197.378 676.126,197.415 676.118,197.453C676.134,197.378 676.15,197.303 676.166,197.228ZM676.311,196.538L676.313,196.524C676.291,196.632 676.269,196.74 676.246,196.848C676.268,196.745 676.289,196.641 676.311,196.538ZM676.322,196.482L676.316,196.51L676.322,196.482ZM676.389,196.157L676.366,196.27C676.373,196.233 676.381,196.195 676.389,196.157ZM676.514,195.536L676.491,195.649L676.514,195.536ZM676.637,194.914L676.628,194.957L676.637,194.914ZM676.721,194.475L676.716,194.504L676.721,194.475ZM676.863,193.724C676.858,193.747 676.854,193.771 676.85,193.795C676.845,193.818 676.841,193.842 676.836,193.866C676.845,193.818 676.854,193.771 676.863,193.724ZM676.881,193.624L676.871,193.681L676.881,193.624ZM677.003,192.956C676.998,192.985 676.992,193.013 676.987,193.042C676.982,193.07 676.977,193.099 676.972,193.127L677.003,192.956ZM677.018,192.871L677.01,192.914L677.018,192.871ZM677.043,192.729L677.036,192.772C677.038,192.757 677.041,192.743 677.043,192.729ZM677.166,192.031C677.157,192.081 677.148,192.131 677.14,192.181C677.131,192.231 677.122,192.28 677.114,192.33L677.166,192.031ZM677.207,191.789L677.21,191.774C677.198,191.841 677.187,191.907 677.176,191.974C677.186,191.912 677.197,191.85 677.207,191.789ZM677.268,191.432L677.256,191.503C677.26,191.48 677.264,191.456 677.268,191.432ZM677.306,191.203C677.301,191.234 677.296,191.265 677.291,191.296C677.285,191.327 677.28,191.358 677.275,191.389C677.285,191.327 677.296,191.265 677.306,191.203ZM677.46,190.26L677.446,190.346C677.451,190.317 677.455,190.288 677.46,190.26ZM677.489,190.074L677.473,190.174C677.479,190.14 677.484,190.107 677.489,190.074ZM677.525,189.844L677.527,189.83L677.491,190.059L677.525,189.844ZM677.592,189.414L677.594,189.4C677.581,189.486 677.568,189.572 677.554,189.658L677.592,189.414ZM677.666,188.926L677.657,188.984L677.666,188.926ZM677.8,188.006C677.796,188.033 677.792,188.059 677.788,188.086C677.785,188.112 677.781,188.138 677.777,188.165L677.8,188.006ZM677.893,187.344C677.886,187.394 677.879,187.445 677.872,187.495C677.865,187.546 677.858,187.596 677.851,187.646C677.865,187.546 677.879,187.445 677.893,187.344ZM597.7,183.12C597.9,183.23 598.095,183.342 598.288,183.46C598.48,183.578 598.67,183.7 598.86,183.83L597.7,183.12ZM586.122,181.931L585.94,181.99L586.163,181.919L586.122,181.931ZM586.305,181.875L586.275,181.885L586.371,181.856L586.305,181.875ZM590.153,181.254L590.145,181.255L590.204,181.253L590.153,181.254Z" style="fill:rgb(6,10,28);fill-rule:nonzero;"/>
    </g>
</svg>
