<?xml version="1.0" encoding="UTF-8" standalone="no"?>
<!DOCTYPE svg PUBLIC "-//W3C//DTD SVG 1.1//EN" "http://www.w3.org/Graphics/SVG/1.1/DTD/svg11.dtd">
<svg width="100%" height="100%" viewBox="0 0 1129 1129" version="1.1" xmlns="http://www.w3.org/2000/svg" xmlns:xlink="http://www.w3.org/1999/xlink" xml:space="preserve" xmlns:serif="http://www.serif.com/" style="fill-rule:evenodd;clip-rule:evenodd;stroke-linejoin:round;stroke-miterlimit:2;">
    <g transform="matrix(1,0,0,1,-2.3,25.6)">
        <path d="M494.1,252.5C485.1,255.4 480.2,265.1 483.1,274.2L491.1,298.5C438.5,278.7 401.1,227.9 401.1,168.3C401.1,91.5 463.4,29.2 540.2,29.2C617,29.2 679.3,91.5 679.3,168.3C679.3,195.1 671.7,220.1 658.6,241.4L651.3,219.2C648.3,210.2 638.6,205.3 629.6,208.2L612,214L604.7,191.6C602.2,183.8 593.8,179.6 586,182.1L512.7,206.1C504.9,208.7 500.7,217 503.2,224.8L510.5,247.2L494.1,252.5Z" style="fill:white;fill-rule:nonzero;"/>
    </g>
    <g transform="matrix(1,0,0,1,-0.2,0)">
        <g transform="matrix(1,0,0,1,-2.1,25.6)">
            <path d="M679.1,163.7L679.1,164.9" style="fill:none;fill-rule:nonzero;"/>
        </g>
        <g transform="matrix(1,0,0,1,-2.1,25.6)">
            <path d="M679,160.1C679,160.6 679.1,161.1 679.1,161.6" style="fill:white;fill-rule:nonzero;"/>
        </g>
        <g transform="matrix(1,0,0,1,-2.1,25.6)">
            <path d="M678.7,156.7C678.7,157.3 678.8,157.9 678.8,158.4" style="fill:white;fill-rule:nonzero;"/>
        </g>
        <g transform="matrix(1,0,0,1,-2.1,25.6)">
            <path d="M678.4,183.1C678.3,184.4 678.1,185.7 677.9,187" style="fill:white;fill-rule:nonzero;"/>
        </g>
        <g transform="matrix(1,0,0,1,-2.1,25.6)">
            <path d="M658.5,241.3C668.5,225.1 675.3,206.7 678,187.1C675.3,206.8 668.5,225.1 658.5,241.3Z" style="fill:white;fill-rule:nonzero;"/>
        </g>
        <g transform="matrix(1,0,0,1,-2.1,25.6)">
            <path d="M677.2,144.4C677.7,147.1 678,149.8 678.4,152.5C678,149.8 677.6,147.1 677.2,144.4Z" style="fill:white;fill-rule:nonzero;"/>
        </g>
        <g transform="matrix(1,0,0,1,-2.1,25.6)">
            <path d="M1001.3,433.1C964.8,397.5 922.3,369.5 875,349.9C826,329.7 773.9,319.4 720.2,319.4C666.5,319.4 614.4,329.7 565.4,349.9C518.1,369.4 475.5,397.4 439,433.1C402.5,468.7 373.9,510.2 353.9,556.4C333.2,604.2 322.7,654.9 322.7,707.3C322.7,759.7 333.2,810.4 353.9,858.2C373.9,904.4 402.5,945.9 439,981.5C466.4,1008.3 497.3,1030.8 531,1048.6L532,1048.6C515,1039.4 374.7,955.3 348.1,794.4C347.7,791.9 351,790.6 352.4,792.7C364.8,810.7 397,846.5 456.4,843C457.3,843 458.2,843.4 458.7,844.3C468.3,862.7 582.8,1058.8 820.1,983.2C820.1,983.2 1001.6,920 1006.2,710.9C1006.2,710.9 1016.2,590.1 896.2,479.6C889,473 928.1,442.8 916.6,381.8C916.2,379.9 918.3,378.1 919.9,379.2C1051.2,470.5 1085.6,562.2 1085.6,562.2L1085.6,554.4C1065.5,509 1037.2,468.2 1001.3,433.1ZM984.4,711.6C984.4,861.5 864.5,983 716.5,983C568.5,983 448.7,861.6 448.7,711.6C448.7,561.6 568.6,440.2 716.6,440.2C864.6,440.2 984.4,561.7 984.4,711.6Z" style="fill:white;fill-rule:nonzero;"/>
        </g>
        <g transform="matrix(1,0,0,1,-2.1,25.6)">
            <path d="M714.1,542.4C714.1,543.2 714.7,544 715.5,544.3L732.1,550.8C733.2,555.3 734.7,559.6 736.5,563.7C736.5,563.8 736.4,563.8 736.3,563.9L727.1,580.8C726.7,581.6 726.8,582.5 727.3,583.2L738,597C738.5,597.7 739.4,598 740.2,597.8L758.6,593.1C762,595.9 765.7,598.5 769.6,600.8L771.7,619.8C771.8,620.6 772.4,621.4 773.2,621.6L790,626.7C790.8,626.9 791.7,626.7 792.3,626L804.8,611.5C806.1,611.6 807.5,611.7 808.8,611.7C811.8,611.7 814.8,611.6 817.8,611.3C817.8,611.3 817.8,611.4 817.9,611.4L830.9,625.6C831.5,626.2 832.4,626.5 833.2,626.2L849.8,620.4C850.6,620.1 851.2,619.4 851.2,618.5L852.7,599.3C856,597.2 859.1,594.9 862,592.4C862.3,592.7 862.6,592.9 863,593L881.8,597C882.6,597.2 883.5,596.8 884,596.1L894.1,581.7C894.6,581 894.6,580.1 894.2,579.4L884.2,562.9C884.1,562.8 884,562.7 883.9,562.5C887.4,554.3 889.6,545.5 890.3,536.3C890.4,535.4 873.9,535.9 870.8,536.1C870.5,536.1 870.3,536.3 870.3,536.6C867.5,567.5 841.4,592.1 809.2,591.7C778.1,591.4 752.1,567 749.6,536C748.1,517.9 754.8,501.1 766.4,489.1C767.2,488.3 767.5,487 767.1,485.9L761.9,470.1C761.4,468.7 759.7,468.2 758.6,469.1C758.5,469.2 758.4,469.3 758.3,469.3C758.3,469.3 758.2,469.3 758.1,469.2L739.4,464.8C738.6,464.6 737.7,464.9 737.2,465.6L726.7,479.7C726.2,480.4 726.1,481.3 726.6,482.1L736.1,498.9C733.9,504 732.2,509.3 731,514.8L714.4,522.7C713.6,523.1 713.1,523.9 713.2,524.7L714.1,542.4Z" style="fill:white;fill-rule:nonzero;"/>
        </g>
        <g transform="matrix(1,0,0,1,-2.1,25.6)">
            <circle cx="679.2" cy="719.9" r="34.9" style="fill:white;"/>
        </g>
        <g transform="matrix(1,0,0,1,-2.1,25.6)">
            <path d="M926.4,718.9C907.8,718.9 892.7,734 892.7,752.6C892.7,771.2 907.8,786.3 926.4,786.3C945,786.3 960.1,771.2 960.1,752.6C960.1,734 945.1,718.9 926.4,718.9Z" style="fill:white;fill-rule:nonzero;"/>
        </g>
        <g transform="matrix(1,0,0,1,-2.1,25.6)">
            <path d="M808.2,557.5C821.7,557.5 832.7,546.5 832.7,533C832.7,519.5 821.7,508.5 808.2,508.5C794.7,508.5 783.7,519.5 783.7,533C783.7,546.5 794.7,557.5 808.2,557.5Z" style="fill:white;fill-rule:nonzero;"/>
        </g>
        <g transform="matrix(1,0,0,1,-2.1,25.6)">
            <path d="M926,853.1C928.1,850.2 930.3,847.5 932.8,845C935.6,837.8 937,832.3 937,832.3C930.7,834.5 924.2,834.1 924.2,834.1C879.3,834.1 842.8,797.7 842.8,752.7C842.8,707.7 879.2,671.3 924.2,671.3C933.1,671.3 941.7,672.7 949.8,675.4C949.8,675.4 953.1,647.1 951.1,646.6C949.4,646.2 947.6,645.8 945.9,645.5L936.8,624.5C936.4,623.5 935.4,622.9 934.4,622.9L913,622.9C912,622.9 911,623.5 910.6,624.5L901.3,645.8C893.1,647.6 885.1,650.2 877.5,653.8C877.4,653.7 877.3,653.6 877.2,653.6L856.6,642C855.7,641.5 854.6,641.6 853.7,642.2L836.7,655.2C835.9,655.8 835.5,656.9 835.7,657.9L841.3,680.7C841.3,680.8 841.4,680.9 841.4,681C837,686.1 833.1,691.6 829.7,697.3L807.7,698.9C806.7,699 805.8,699.7 805.4,700.7L798.4,721C798.1,722 798.3,723.1 799.1,723.8L815.6,739.1C815.1,743.6 814.8,748.1 814.8,752.6C814.8,757.5 815.1,762.4 815.8,767.2L799,782.9C798.2,783.6 798,784.7 798.3,785.7L805.6,805.9C805.9,806.9 806.8,807.6 807.9,807.6L830.5,809.1C834.7,816.1 839.7,822.6 845.5,828.5C845.3,828.7 845.2,829 845.2,829.3L840.7,852.3C840.5,853.3 840.9,854.4 841.8,855L859.5,867.1C860.4,867.7 861.5,867.7 862.4,867.2L882.4,854.7C882.7,854.5 883,854.2 883.2,853.9C888.5,856 893.9,857.8 899.5,859.1L909.6,870.2C915.1,864.7 920.7,859 926,853.1Z" style="fill:white;fill-rule:nonzero;"/>
        </g>
        <g transform="matrix(1,0,0,1,-2.1,25.6)">
            <path d="M678.4,153.4C678.5,154 678.5,154.7 678.6,155.4" style="fill:white;fill-rule:nonzero;"/>
        </g>
        <g transform="matrix(1,0,0,1,-2.1,25.6)">
            <path d="M634.6,207.3C632.9,207.3 631.2,207.6 629.5,208.2L611.9,214L629.5,208.2C631.2,207.6 632.9,207.3 634.6,207.3Z" style="fill:white;fill-rule:nonzero;"/>
        </g>
        <g transform="matrix(1,0,0,1,-2.1,25.6)">
            <path d="M439.5,264.2C440.4,265.1 441.3,266.1 442.2,267" style="fill:white;fill-rule:nonzero;"/>
        </g>
        <g transform="matrix(1,0,0,1,-2.1,25.6)">
            <path d="M491.1,298.4C472.6,291.4 456,280.6 442.2,267C456,280.7 472.6,291.4 491.1,298.4Z" style="fill:white;fill-rule:nonzero;"/>
        </g>
        <g transform="matrix(1,0,0,1,-2.1,25.6)">
            <path d="M512.7,206L586,182C587.5,181.5 588.9,181.3 590.4,181.3C588.9,181.3 587.5,181.6 586,182L512.7,206C505.3,208.4 501.1,216 502.9,223.4C501.1,216 505.3,208.4 512.7,206Z" style="fill:white;fill-rule:nonzero;"/>
        </g>
        <g transform="matrix(1,0,0,1,-2.1,25.6)">
            <path d="M331.7,867.7C327.6,858.2 323.8,848.5 320.5,838.8C260.7,887.8 195.2,924.6 149.7,947.2C119.1,962.4 93.7,973.2 77.9,979.6C107.4,1021.3 156,1048.5 211,1048.5L483.9,1048.5C461.9,1033.9 441.3,1017.3 422.2,998.7C383.4,960.8 353,916.8 331.7,867.7Z" style="fill:white;fill-rule:nonzero;"/>
        </g>
        <g transform="matrix(1,0,0,1,-2.1,25.6)">
            <path d="M488.5,290.5L483.1,274.2C480.1,265.2 485.1,255.5 494.1,252.5L510.5,247.1L494.1,252.5C485.1,255.4 480.2,265.1 483.1,274.2L488.5,290.5Z" style="fill:white;fill-rule:nonzero;"/>
        </g>
        <g transform="matrix(1,0,0,1,-2.1,25.6)">
            <path d="M1020.9,177.4C973.4,265.6 922.4,315.9 900.7,334.9C944.2,355.1 983.7,382.2 1018,415.8C1044.4,441.6 1067,470.3 1085.4,501.5L1085.4,307.3C1085.5,254.2 1060.1,207.1 1020.9,177.4Z" style="fill:white;fill-rule:nonzero;"/>
        </g>
        <g transform="matrix(1,0,0,1,-2.1,25.6)">
            <path d="M669.5,275.2L673.8,288.3C675.1,292 675.9,294.9 676.5,297.4C690.9,296 705.4,295.2 720.1,295.2C774.4,295.2 827.1,305.1 877,324.7C883.9,319.2 945.8,268.8 1001.5,164.7C978.1,151.7 951.2,144.3 922.5,144.3L707.9,144.3C708.9,151.6 709.4,159 709.4,166.5C709.4,208 694.4,245.9 669.5,275.2Z" style="fill:white;fill-rule:nonzero;"/>
        </g>
        <g transform="matrix(1,0,0,1,-2.1,25.6)">
            <path d="M298.6,707.3C298.6,651.6 309.8,597.7 331.8,546.8C353,497.7 383.5,453.7 422.2,415.8C448.3,390.3 477.3,368.6 508.8,350.7C507.8,348.8 506.8,346.4 505.9,343.3L501.4,329.6C428.1,311.6 373.8,245.4 373.8,166.6C373.8,159.1 374.3,151.6 375.3,144.4L210.9,144.4C120.9,144.4 48,217.3 48,307.3L48,885.7C48,912.4 54.4,937.5 65.8,959.7C104.4,944.3 218.6,894.9 313.1,815.1C303.4,780.1 298.6,744.1 298.6,707.3Z" style="fill:white;fill-rule:nonzero;"/>
        </g>
        <g transform="matrix(1,0,0,1,-2.1,25.6)">
            <path d="M401.1,164.9L401.1,163.7" style="fill:none;fill-rule:nonzero;"/>
        </g>
        <g transform="matrix(1,0,0,1,-2.1,25.6)">
            <path d="M401.2,161.6C401.2,161.1 401.2,160.6 401.3,160.1" style="fill:white;fill-rule:nonzero;"/>
        </g>
        <g transform="matrix(1,0,0,1,-2.1,25.6)">
            <path d="M401.6,155.3C401.7,154.7 401.7,154 401.8,153.4" style="fill:white;fill-rule:nonzero;"/>
        </g>
        <g transform="matrix(1,0,0,1,-2.1,25.6)">
            <path d="M401.9,152.5C402.2,149.8 402.6,147.1 403,144.4C402.6,147.1 402.2,149.7 401.9,152.5Z" style="fill:white;fill-rule:nonzero;"/>
        </g>
        <g transform="matrix(1,0,0,1,-2.1,25.6)">
            <path d="M401.4,158.4C401.4,157.8 401.5,157.3 401.5,156.7" style="fill:white;fill-rule:nonzero;"/>
        </g>
        <g transform="matrix(1,0,0,1,-2.1,25.6)">
            <path d="M597.7,183.1C598.1,183.3 598.5,183.5 598.9,183.8" style="fill:white;fill-rule:nonzero;"/>
        </g>
        <g transform="matrix(1,0,0,1,-2.1,25.6)">
            <path d="M604.6,191.5L606.4,197L604.6,191.5C603.5,188.3 601.4,185.6 598.8,183.9C601.5,185.6 603.6,188.2 604.6,191.5Z" style="fill:white;fill-rule:nonzero;"/>
        </g>
        <g transform="matrix(1,0,0,1,-2.1,25.6)">
            <path d="M805,745.5L789,729.6C789.2,726.7 789.3,723.7 789.3,720.7C789.3,715.6 788.9,710.5 788.3,705.5L804.9,689.4C805.7,688.7 805.9,687.6 805.5,686.6L797.9,666.5C797.5,665.5 796.6,664.9 795.6,664.8L773.4,663.6C769.1,656.4 763.9,649.7 757.9,643.6L762,621.3C762.2,620.3 761.8,619.2 760.9,618.6L743.1,606.7C742.2,606.1 741.1,606.1 740.2,606.7L721.4,618.7C713.9,615.6 706,613.3 697.8,611.9L689,591.5C688.6,590.5 687.6,589.9 686.6,589.9L665.1,589.9C664.1,589.9 663.1,590.5 662.7,591.5L653.3,613C653.3,613.1 653.3,613.2 653.2,613.2C645.7,615 638.4,617.5 631.4,620.9L611.3,609.1C610.4,608.6 609.3,608.6 608.4,609.3L591.1,622C590.3,622.6 589.9,623.7 590.1,624.7L595.2,647.7C595.2,647.9 595.3,648.2 595.4,648.4C590.3,654.3 585.9,660.6 582.2,667.2L558.9,669.6C557.9,669.7 557,670.4 556.7,671.4L550.3,691.9C550,692.9 550.3,694 551.1,694.7L568.8,710.2C568.9,710.3 569,710.3 569,710.4C568.7,713.9 568.5,717.3 568.5,720.9C568.5,726 568.8,731.1 569.5,736.1L553,750.6C552.2,751.3 551.9,752.4 552.2,753.4L558.7,774.6C559,775.6 559.9,776.4 560.9,776.5L584.1,779.6C584.5,779.6 584.9,779.6 585.2,779.5C588.9,785.4 593.2,791 598.1,796.2C598,796.4 597.9,796.6 597.9,796.8L593.8,819.8C593.6,820.8 594.1,821.9 595,822.5L613.3,835C614.2,835.6 615.3,835.7 616.2,835.1L636.3,823L636.4,822.9C643.7,826 651.4,828.2 659.3,829.6L668.4,849.9C668.8,850.9 669.8,851.5 670.9,851.5L693.1,851.5C694.2,851.5 695.1,850.9 695.6,850L705.4,828.7C705.5,828.5 705.5,828.3 705.6,828.2C713.2,826.3 720.5,823.7 727.5,820.2C727.7,820.4 727.8,820.5 728.1,820.6L748.7,831.7C749.6,832.2 750.8,832.1 751.6,831.4L769.2,817.9C770,817.2 770.4,816.2 770.2,815.2L765,792.4C764.9,791.9 764.6,791.5 764.3,791.2C769.5,784.9 773.9,778.2 777.5,771L795.6,770.3C796.6,770.3 797.6,769.6 797.9,768.6L805.6,748.6C806,747.3 805.8,746.2 805,745.5ZM679,802.1C634.1,802.1 597.6,765.7 597.6,720.7C597.6,675.7 634,639.3 679,639.3C724,639.3 760.4,675.7 760.4,720.7C760.4,765.7 724,802.1 679,802.1Z" style="fill:white;fill-rule:nonzero;"/>
        </g>
    </g>
    <g transform="matrix(1,0,0,1,-2.3,25.6)">
        <path d="M844.5,899.4C738.4,978 591.9,948.4 519.9,839C484.1,784.5 471.1,714.9 487.4,651.5C504.8,584.5 551.5,525.4 613.3,494C614.9,493.3 620.7,490.4 622.3,489.7C629.2,486.7 636.9,483.6 644.1,481.3C658.8,476.6 674.3,473.2 689.7,472L696.3,471.5C700.5,471.1 704.3,474.3 704.6,478.6C704.9,482.7 702,486.3 698,486.9L697.5,487L691.4,487.9C677.4,489.9 663.3,493.8 650,498.8C566.8,530.6 506,616 505.7,705.4C506,779.2 542.6,848.5 605,888.4C628.7,903.6 655.5,913.8 683.3,918.3C684.8,918.5 690.7,919.4 692.3,919.6C695.1,919.9 700.1,920.3 702.8,920.6C705.9,920.8 710.3,920.9 713.4,921C723.4,921 733.7,920.6 743.6,919.2C775.8,915 806.9,902.8 833.8,884.7C843.9,878.1 853.9,891.8 844.5,899.4Z" style="fill:white;fill-rule:nonzero;"/>
    </g>
</svg>
