<?xml version="1.0" encoding="UTF-8"?><svg id="_200" xmlns="http://www.w3.org/2000/svg" viewBox="0 0 28.62 29.11"><defs><style>.cls-1{fill:#be2179;}</style></defs><path class="cls-1" d="M24.7,27.18c-3.02-2.67-2.05-1.78-5.55-5.04l.63,2.21H6.21c-1.35,0-2.46-1.1-2.46-2.47V5.7c0-1.37,1.1-2.47,2.46-2.47H22.25c1.35,0,2.45,1.1,2.45,2.47V27.18Zm-5.14-17.11c-1.72-1.29-3.36-1.26-3.36-1.26l-.17,.19c2.04,.62,2.98,1.52,2.98,1.52-2.84-1.56-6.18-1.56-8.94-.35-.44,.2-.71,.35-.71,.35,0,0,.99-.95,3.15-1.57l-.12-.14s-1.64-.04-3.36,1.26c0,0-1.72,3.12-1.72,6.98,0,0,1.01,1.74,3.65,1.82,0,0,.44-.54,.8-.99-1.52-.46-2.09-1.41-2.09-1.41,.18,.12,.47,.28,.49,.3,2.02,1.13,4.89,1.5,7.47,.42,.42-.16,.89-.38,1.38-.71,0,0-.6,.98-2.17,1.42,.36,.46,.79,.97,.79,.97,2.65-.08,3.66-1.82,3.66-1.82,0-3.86-1.72-6.98-1.72-6.98Zm-6.29,4.54c0,.73-.54,1.33-1.22,1.33s-1.22-.6-1.22-1.33,.54-1.33,1.22-1.33,1.23,.6,1.22,1.33Zm3.15,1.33c-.67,0-1.22-.6-1.22-1.33s.54-1.33,1.22-1.33,1.22,.6,1.22,1.33-.54,1.33-1.22,1.33Z"/></svg>