<?xml version="1.0" encoding="UTF-8"?><svg id="_200" xmlns="http://www.w3.org/2000/svg" viewBox="0 0 34.98 30.11"><defs><style>.cls-1{fill:#be2179;}</style></defs><path class="cls-1" d="M16.74,1C9,1,2.71,7.29,2.71,15.03s6.29,14.03,14.03,14.03,14.03-6.29,14.03-14.03S24.48,1,16.74,1ZM8.57,7.71h3.54c.54,0,.98,.44,.98,.98v5.98c0,.54-.44,.98-.98,.98H7.59v-1.22h3.9c.2,0,.37-.16,.37-.37v-4.76c0-.2-.16-.37-.37-.37h-2.32c-.2,0-.37,.16-.37,.37v2.32c0,.2,.16,.37,.37,.37h1.77v1.22h-2.38c-.54,0-.98-.44-.98-.98v-3.54c0-.54,.44-.98,.98-.98Zm6.4,0h3.54c.54,0,.98,.44,.98,.98v3.54c0,.54-.44,.98-.98,.98h-3.54c-.54,0-.98-.44-.98-.98v-3.54c0-.54,.44-.98,.98-.98Zm6.4,0h3.54c.54,0,.98,.44,.98,.98v5.98c0,.54-.44,.98-.98,.98h-4.51v-1.22h3.9c.2,0,.37-.16,.37-.37v-4.76c0-.2-.16-.37-.37-.37h-2.32c-.2,0-.37,.16-.37,.37v2.32c0,.2,.16,.37,.37,.37h1.77v1.22h-2.38c-.54,0-.98-.44-.98-.98v-3.54c0-.54,.44-.98,.98-.98Zm-5.79,1.22c-.2,0-.37,.16-.37,.37v2.32c0,.2,.16,.37,.37,.37h2.32c.2,0,.37-.16,.37-.37v-2.32c0-.2-.16-.37-.37-.37h-2.32Zm-7.01,7.93h3.6v1.22h-2.99c-.2,0-.37,.16-.37,.37v2.32c0,.2,.16,.37,.37,.37h2.99v1.22h-3.6c-.54,0-.98-.44-.98-.98v-3.54c0-.54,.44-.98,.98-.98Zm5.49,0h3.54c.54,0,.98,.44,.98,.98v3.54c0,.54-.44,.98-.98,.98h-3.54c-.54,0-.98-.44-.98-.98v-3.54c0-.54,.44-.98,.98-.98Zm6.4,0h5.43v5.49h-1.22v-4.27h-1.01c-.2,0-.37,.16-.37,.37v3.9h-1.22v-4.27h-1.01c-.2,0-.37,.16-.37,.37v3.9h-1.22v-4.51c0-.54,.44-.98,.98-.98Zm-5.79,1.22c-.2,0-.37,.16-.37,.37v2.32c0,.2,.16,.37,.37,.37h2.32c.2,0,.37-.16,.37-.37v-2.32c0-.2-.16-.37-.37-.37h-2.32Z"/></svg>