<?xml version="1.0" encoding="UTF-8"?><svg id="_200" xmlns="http://www.w3.org/2000/svg" viewBox="0 0 25.68 28.82"><defs><style>.cls-1{fill:#be2179;}</style></defs><path class="cls-1" d="M23.44,5.76V23.7c0,.83-.67,1.51-1.5,1.51H3.98c-.82,0-1.49-.68-1.49-1.51V5.76c0-.83,.67-1.51,1.49-1.51H21.94c.82,0,1.5,.68,1.5,1.51Zm-14.37,3.28c0-.99-.81-1.8-1.8-1.8s-1.8,.81-1.8,1.8,.8,1.8,1.8,1.8,1.8-.8,1.8-1.8Zm-.24,13.17V12.21h-3.11v10h3.11Zm11.64-5.48c0-2.69-.58-4.77-3.73-4.77-1.51,0-2.53,.83-2.94,1.61h-.04v-1.37h-2.98v10h3.11v-4.95c0-1.3,.25-2.57,1.87-2.57s1.61,1.49,1.61,2.65v4.86h3.11v-5.48Z"/></svg>