<?xml version="1.0" encoding="UTF-8"?><svg id="_200" xmlns="http://www.w3.org/2000/svg" viewBox="0 0 41.67 30.11"><defs><style>.cls-1{fill:#be2179;fill-rule:evenodd;}</style></defs><g id="_状_1"><path class="cls-1" d="M24.1,6.81c.1,.49,.07,.99,.07,1.49,0,2.75,0,5.51,0,8.26,.83,.39,1.72,.68,2.65,.67,.61,.01,1.22-.13,1.76-.41,.56-.3,1.02-.77,1.35-1.3,.38-.61,.6-1.3,.73-2,.15-.81,.15-1.63,.13-2.45-.06-1.25-.24-2.53-.79-3.67-.3-.63-.71-1.21-1.21-1.7-.46-.47-1-.86-1.56-1.2-1.25-.74-2.63-1.24-4.01-1.68-.88-.28-1.77-.55-2.66-.81-1.55-.44-3.12-.86-4.7-1.16,0,8.77,0,17.54,0,26.31,1.98,.63,3.97,1.26,5.95,1.89,0-7.37,0-14.74,0-22.12,.01-.42,.08-.86,.35-1.2,.16-.21,.44-.32,.7-.27,.26,.05,.52,.16,.71,.33,.3,.26,.45,.64,.52,1.02Zm-15.54,15.59c2.04-.73,4.08-1.47,6.13-2.19,.02-.14,0-.28,.01-.41,0-1.02,0-2.03,0-3.05-2.59,.91-5.17,1.84-7.76,2.75-.63,.23-1.27,.44-1.89,.7-.72,.3-1.42,.64-2.07,1.08-.28,.19-.53,.43-.67,.74-.15,.31-.16,.68-.04,1,.14,.38,.42,.68,.74,.93,.57,.44,1.25,.7,1.94,.9,2.09,.69,4.29,1.03,6.49,.98,1.09-.02,2.18-.15,3.25-.34,.02-.17,0-.34,0-.52,0-.86,0-1.72,0-2.58-.87,.31-1.75,.63-2.62,.95-.34,.13-.68,.24-1.03,.31-.52,.12-1.06,.15-1.59,.16-.48-.02-.97-.05-1.42-.23-.16-.07-.34-.16-.41-.33-.06-.15,.03-.3,.13-.4,.22-.22,.51-.34,.79-.44Zm29.58-1.97c-.52-.46-1.16-.75-1.81-.99-.36-.12-.72-.26-1.08-.37-1.86-.58-3.8-.82-5.74-.83-.59,.02-1.18,.04-1.77,.1-1.63,.19-3.26,.52-4.81,1.06,0,1.19,0,2.38,0,3.57,2.15-.75,4.29-1.51,6.44-2.26,.71-.24,1.47-.33,2.22-.34,.48,.01,.97,.05,1.42,.23,.16,.07,.33,.16,.4,.33,.07,.19-.07,.37-.21,.48-.35,.28-.79,.39-1.19,.54-3.01,1.08-6.03,2.15-9.04,3.22-.06,.01-.04,.09-.04,.13,0,1.11,0,2.22,0,3.33,3.96-1.42,7.93-2.85,11.89-4.27,.65-.24,1.32-.44,1.93-.76,.58-.29,1.16-.63,1.6-1.12,.23-.26,.39-.6,.37-.96,0-.44-.27-.82-.58-1.1Z"/></g></svg>