<?xml version="1.0" encoding="UTF-8"?><svg id="_200" xmlns="http://www.w3.org/2000/svg" viewBox="0 0 35.35 30.11"><defs><style>.cls-1{fill:#be2179;}</style></defs><g><path class="cls-1" d="M3.89,17.86c-.02-.11-.05-.23-.07-.34,.02,.11,.05,.23,.07,.34Z"/><path class="cls-1" d="M3.66,16.51c-.01-.11-.03-.23-.04-.34,.01,.11,.03,.23,.04,.34Z"/><path class="cls-1" d="M4.23,19.14c-.03-.1-.06-.19-.08-.29,.03,.1,.05,.19,.08,.29Z"/><path class="cls-1" d="M12.86,22.52c-.3,.13-.62,.2-.94,.2-.08,0-.16-.02-.23-.03,.38,.27,.85,.42,1.35,.42,1.31,0,2.37-1.06,2.37-2.37s-1.06-2.37-2.37-2.37c-.02,0-.04,0-.06,0,.97,.5,1.47,1.63,1.15,2.69-.19,.64-.65,1.17-1.27,1.45Z"/><path class="cls-1" d="M24.89,11.86c0-1.63-1.33-2.96-2.96-2.96s-2.96,1.33-2.96,2.96,1.33,2.96,2.96,2.96,2.96-1.33,2.96-2.96Zm-4.74,0c0-.98,.8-1.78,1.78-1.78s1.78,.8,1.78,1.78-.8,1.78-1.78,1.78-1.78-.8-1.78-1.78Z"/><path class="cls-1" d="M17.78,.59C10.18,.59,3.98,6.58,3.59,14.07l6.51,2.98c.81-.65,1.82-1.05,2.94-1.05,.25,0,.49,.04,.73,.07l2.86-3.74c-.02-.18-.04-.33-.04-.48,0-2.94,2.39-5.33,5.33-5.33s5.33,2.39,5.33,5.33-2.3,5.24-5.16,5.33l-4.32,3.56c0,2.61-2.13,4.74-4.74,4.74-2.43,0-4.42-1.85-4.69-4.21l-4.03-1.9c1.9,5.61,7.21,9.67,13.46,9.67,7.84,0,14.22-6.38,14.22-14.22S25.62,.59,17.78,.59Z"/></g><path class="cls-1" d="M17.78,.89c6.32,0,11.67,4.08,13.6,9.74C29.59,4.82,24.17,.59,17.78,.59S5.96,4.82,4.18,10.64C6.11,4.97,11.46,.89,17.78,.89Z"/><path class="cls-1" d="M17.78,28.75c-5.62,0-10.48-3.2-12.83-7.9-.29-.58-.54-1.18-.75-1.8,.19,.62,.42,1.22,.69,1.8,2.26,4.86,7.18,8.19,12.89,8.19s10.34-3.15,12.68-7.77c.36-.71,.67-1.46,.91-2.24-.15,.45-.33,.89-.52,1.31-2.26,4.97-7.25,8.4-13.07,8.4Z"/></svg>