<?xml version="1.0" encoding="UTF-8"?><svg id="_200" xmlns="http://www.w3.org/2000/svg" viewBox="0 0 30.14 29.61"><defs><style>.cls-1{fill:#be2179;}</style></defs><path class="cls-1" d="M24.6,10.91c0,6.49-4.94,13.96-13.96,13.96-2.78,0-5.36-.8-7.54-2.2,.39,.05,.77,.06,1.18,.06,2.29,0,4.41-.78,6.09-2.1-2.16-.05-3.97-1.46-4.59-3.4,.3,.04,.61,.08,.93,.08,.44,0,.88-.06,1.29-.17-2.25-.46-3.94-2.43-3.94-4.82v-.06c.65,.36,1.41,.59,2.22,.62-1.32-.88-2.19-2.39-2.19-4.09,0-.91,.24-1.75,.67-2.48,2.42,2.98,6.05,4.92,10.12,5.13-.08-.36-.12-.74-.12-1.12,0-2.7,2.19-4.91,4.91-4.91,1.41,0,2.69,.59,3.58,1.55,1.11-.21,2.17-.62,3.12-1.19-.37,1.14-1.14,2.1-2.16,2.7,.99-.11,1.94-.38,2.83-.76-.67,.97-1.5,1.84-2.46,2.54,.02,.21,.02,.42,.02,.64Z"/></svg>