<?xml version="1.0" encoding="UTF-8" standalone="no"?>
<!DOCTYPE svg PUBLIC "-//W3C//DTD SVG 1.1//EN" "http://www.w3.org/Graphics/SVG/1.1/DTD/svg11.dtd">
<svg width="100%" height="100%" viewBox="0 0 35 31" version="1.1" xmlns="http://www.w3.org/2000/svg" xmlns:xlink="http://www.w3.org/1999/xlink" xml:space="preserve" xmlns:serif="http://www.serif.com/" style="fill-rule:evenodd;clip-rule:evenodd;stroke-linejoin:round;stroke-miterlimit:2;">
    <g id="path4148" transform="matrix(0.0772286,0,0,0.0772286,2.98995,1.6227)">
        <path d="M169.188,359.449C140.505,356.702 111.465,346.401 86.519,330.125C65.614,316.486 60.894,310.88 60.894,299.691C60.894,277.215 85.606,237.85 127.886,192.975C151.899,167.488 185.346,137.615 188.964,138.424C195.995,139.996 252.214,194.834 273.26,220.649C306.541,261.47 321.841,294.894 314.068,309.796C308.16,321.123 271.496,343.263 244.561,351.768C222.361,358.778 193.205,361.749 169.188,359.449ZM32.66,276.323C15.289,249.673 6.513,223.437 2.275,185.491C0.876,172.961 1.377,165.794 5.452,140.076C10.531,108.022 28.785,70.939 50.72,48.118C60.061,38.398 60.896,38.162 72.283,41.998C86.111,46.656 100.879,56.855 123.781,77.564L137.144,89.647L129.847,98.611C95.974,140.224 60.217,199.208 46.741,235.701C39.415,255.539 36.461,275.454 39.613,283.744C41.741,289.342 39.786,287.255 32.66,276.323ZM337.575,280.855C339.291,272.478 337.121,257.093 332.034,241.575C321.017,207.969 284.194,145.451 250.381,102.945L239.737,89.564L251.253,78.99C266.289,65.183 276.729,56.916 287.993,49.895C296.882,44.355 309.584,39.451 315.044,39.451C318.41,39.451 330.261,51.749 339.828,65.171C354.646,85.959 365.546,111.158 371.069,137.391C374.637,154.341 374.935,190.622 371.644,207.53C368.943,221.406 363.241,239.405 357.678,251.612C353.509,260.759 343.142,278.523 338.599,284.303C336.264,287.275 336.262,287.268 337.575,280.855L337.575,280.855ZM172.259,33.105C156.658,25.182 132.59,16.678 119.294,14.39C114.633,13.587 106.682,13.14 101.625,13.395C90.656,13.949 91.146,13.376 108.743,5.062C123.373,-1.85 135.577,-5.915 152.144,-9.393C170.78,-13.306 205.809,-13.352 224.149,-9.488C243.957,-5.314 267.282,3.366 280.425,11.455L284.331,13.859L275.369,13.406C257.559,12.507 231.603,19.702 203.736,33.263C195.331,37.354 188.018,40.621 187.486,40.523C186.954,40.426 180.102,37.087 172.259,33.105L172.259,33.105Z" style="fill:rgb(190,33,121);fill-rule:nonzero;"/>
    </g>
</svg>
