<?xml version="1.0" encoding="UTF-8"?><svg id="_200" xmlns="http://www.w3.org/2000/svg" viewBox="0 0 28.52 28.82"><defs><style>.cls-1{fill:#be2179;}</style></defs><path class="cls-1" d="M27.02,14.49s0,4.18-.53,6.19c-.29,1.11-1.16,1.94-2.26,2.24-1.99,.54-9.98,.54-9.98,.54,0,0-7.99,0-9.98-.54-1.1-.3-1.96-1.13-2.26-2.24-.53-2-.53-6.19-.53-6.19,0,0,0-4.18,.53-6.19,.29-1.11,1.16-1.98,2.26-2.27,1.99-.54,9.98-.54,9.98-.54,0,0,7.99,0,9.98,.54,1.1,.3,1.96,1.17,2.26,2.27,.53,2,.53,6.19,.53,6.19Zm-8.71,0l-6.67-3.8v7.59l6.67-3.8Z"/></svg>